<?xml version="1.0" standalone="no"?><!DOCTYPE svg PUBLIC "-//W3C//DTD SVG 1.1//EN" "http://www.w3.org/Graphics/SVG/1.1/DTD/svg11.dtd"><svg t="1623911483144" class="icon" viewBox="0 0 1024 1024" version="1.1" xmlns="http://www.w3.org/2000/svg" p-id="1584" xmlns:xlink="http://www.w3.org/1999/xlink" width="200" height="200"><defs><style type="text/css"></style></defs><path d="M788.383396 175.644981c-49.499774-31.705358-142.490566-75.930566-231.791094-35.08649a12.944906 12.944906 0 0 1-18.393359-11.727699V46.736906c0-18.972981-12.867623-34.506868-28.614037-34.506868h-42.950038c-15.746415 0-28.633358 15.533887-28.633359 34.506868v86.943396a12.944906 12.944906 0 0 1-15.495245 12.79034c-36.265057-7.477132-130.434415-19.127547-220.469132 34.661433-12.345962 7.380528-5.177962 26.681962 8.96483 24.092982 41.926038-7.651019 97.086792-12.925585 134.39517 1.777509 9.776302 3.864151 11.186717 17.214792 2.395774 22.972377-26.488755 17.292075-75.350943 57.054189-107.365434 130.144604-5.467774 12.461887 9.853585 23.609962 20.344754 14.973585 40.902038-33.695396 108.196226-79.36966 165.269736-71.989132a13.157434 13.157434 0 0 1 11.727698 13.138113c-0.579623 38.274415-0.096604 168.399698 31.512151 217.628981a13.06083 13.06083 0 0 0 21.600604 0.676227c20.151547-27.667321 63.835774-101.105509 62.038943-215.754868a13.099472 13.099472 0 0 1 13.485887-13.408604c28.768604 0.946717 96.739019 9.080755 150.663246 61.710491 8.829585 8.636377 23.455396 1.178566 21.909735-11.070793-4.231245-33.521509-22.682566-84.21917-89.493735-123.536905-10.143396-5.970113-8.423849-21.156226 3.014037-23.977057 23.068981-5.660981 62.831094-11.032151 128.367095-8.868227 13.254038 0.444377 18.68317-16.828377 7.515773-23.996377" fill="#88C057" p-id="1585"></path><path d="M803.414943 205.244377a13.56317 13.56317 0 0 0-6.066717-2.31849c-7.747623-0.946717-15.475925-1.835472-23.204226-2.878793-2.762868-0.25117-5.545057-0.483019-8.307925-0.753509-56.281358-0.908075-91.619019 3.980075-112.929811 9.158038-11.592453 2.82083-13.659774 18.006943-3.400453 24.054339 66.81117 39.298415 85.24317 89.996075 89.474415 123.517585 1.54566 12.249358-13.080151 19.70717-21.909735 11.070793-53.924226-52.629736-121.894642-60.763774-150.663246-61.710491a13.099472 13.099472 0 0 0-13.485887 13.408604c1.79683 114.649358-41.887396 188.087547-62.038943 215.754868a13.06083 13.06083 0 0 1-21.600604-0.676227c-31.608755-49.229283-32.091774-179.354566-31.512151-217.628981a13.157434 13.157434 0 0 0-11.727698-13.138113c-57.073509-7.380528-124.367698 38.293736-165.269736 71.989132-10.49117 8.636377-25.812528-2.511698-20.344754-14.973585 31.975849-72.993811 80.741434-112.755925 107.249509-130.086641a13.022189 13.022189 0 0 0-2.473056-22.991698 125.043925 125.043925 0 0 0-23.223548-6.259925 14.200755 14.200755 0 0 0-4.521056-0.077283c-46.85283 6.375849-92.874868 15.282717-137.544453 27.242264a14.297358 14.297358 0 0 0-5.37117 2.782189C75.949887 312.745057 14.046189 430.85283 14.046189 562.176c0 247.711396 220.121358 448.531321 491.655245 448.531321 271.533887 0 491.635925-200.819925 491.635924-448.531321 0-145.601208-76.065811-274.992302-193.922415-356.931623" fill="#D13834" p-id="1586"></path></svg>